1.8Hz3min_grf.mot
version=1
nRows=12
nColumns 19
inDegrees=yes
endheader
time	1_ground_force_vx	1_ground_force_vy	1_ground_force_vz	1_ground_force_px	1_ground_force_py	1_ground_force_pz	1_ground_torque_x	1_ground_torque_y	1_ground_torque_z	2_ground_force_vx	2_ground_force_vy	2_ground_force_vz	2_ground_force_px	2_ground_force_py	2_ground_force_pz	2_ground_torque_x	2_ground_torque_y	2_ground_torque_z
            1.253500	            0.652767	          601.171536	          -78.086660	           -0.149635	            0.006261	           -0.410515	           -0.000121	           -0.111638	            0.014501	            9.452263	          595.156874	           68.428768	           -0.147474	            0.005952	           -0.698028	           -0.001559	           -0.098186	           -0.011289
            1.254000	            1.840168	          606.585770	          -79.487966	           -0.149784	            0.006262	           -0.410871	           -0.000492	           -0.162223	            0.021258	            9.715582	          600.128532	           68.821814	           -0.147588	            0.005952	           -0.698061	           -0.003644	           -0.225070	           -0.025811
            1.254500	            2.936827	          611.818239	          -80.522955	           -0.149725	            0.006262	           -0.410904	           -0.000314	           -0.065514	            0.008622	            9.931551	          605.282884	           69.590961	           -0.147434	            0.005953	           -0.698198	           -0.006696	           -0.408076	           -0.046918
            1.255000	            3.713984	          616.867992	          -81.007666	           -0.149697	            0.006263	           -0.411002	            0.000961	            0.159646	           -0.020965	            9.917718	          609.148895	           69.886328	           -0.147468	            0.005952	           -0.698068	           -0.004779	           -0.293545	           -0.033678
            1.255500	            4.262688	          623.358055	          -81.072924	           -0.149961	            0.006262	           -0.410950	            0.001965	            0.287340	           -0.037371	           10.559638	          613.018569	           69.852912	           -0.147498	            0.005951	           -0.697695	           -0.003356	           -0.194812	           -0.022199
            1.256000	            5.086353	          629.127503	          -81.233660	           -0.149978	            0.006263	           -0.411056	            0.002581	            0.319234	           -0.041220	           11.243113	          618.361369	           69.871667	           -0.147902	            0.005951	           -0.697987	           -0.002784	           -0.153130	           -0.017303
            1.256500	            5.727071	          633.814988	          -81.306860	           -0.150013	            0.006264	           -0.411363	            0.001841	            0.203708	           -0.026132	           12.122751	          621.309952	           70.163370	           -0.147686	            0.005950	           -0.697605	           -0.003965	           -0.203195	           -0.022946
            1.257000	            6.410913	          640.309207	          -82.335430	           -0.150448	            0.006263	           -0.411231	           -0.000183	           -0.018248	            0.002346	           12.944445	          627.387267	           70.935544	           -0.148000	            0.005950	           -0.697911	           -0.007158	           -0.346918	           -0.039224
            1.257500	            7.691121	          646.442359	          -83.229454	           -0.150459	            0.006263	           -0.411204	            0.001049	            0.088197	           -0.011355	           13.448098	          630.701607	           71.557225	           -0.147841	            0.005950	           -0.697679	           -0.011465	           -0.537689	           -0.061004
            1.258000	            8.695686	          652.035871	          -84.400241	           -0.150591	            0.006263	           -0.411094	            0.002711	            0.203303	           -0.026316	           13.482443	          634.199628	           71.851258	           -0.147723	            0.005950	           -0.697575	           -0.013735	           -0.646057	           -0.073195
            1.258500	            9.563666	          657.447610	          -85.204628	           -0.150590	            0.006264	           -0.411348	            0.004780	            0.328610	           -0.042588	           13.696960	          639.723265	           72.340151	           -0.147968	            0.005950	           -0.697896	           -0.011900	           -0.555798	           -0.062850
            1.259000	            9.929195	          662.855983	          -85.274054	           -0.150637	            0.006264	           -0.411321	            0.007803	            0.520894	           -0.067011	           13.919973	          642.854062	           72.491998	           -0.147853	            0.005949	           -0.697410	           -0.007961	           -0.367677	           -0.041461
